# xmcd
#
# Track frame offsets:
#	150
#	17547
#	37359
#	63437
#	90555
#	103124
#	121786
#	136975
#	152177
#	164379
#	176177
#
# Disc length: 2637 seconds
#
# Revision: 1
# Processed by: cddbd v1.4PL0 Copyright (c) Steve Scherf et al.
# Submitted via: audiograbber 1.81.03
#
DISCID=920a4b0b
DTITLE=Lello Panico and the Fritz Gang - Out of the Blue
DYEAR=2003
DGENRE=Blues
TTITLE0=Just A LIttle Bit
TTITLE1=Growin' Weary
TTITLE2=Living In Your Wake
TTITLE3=True as the Moon
TTITLE4=The Minutes Are Borrowed
TTITLE5=Nobody But Me
TTITLE6=She Came In Through The Bathroom Window
TTITLE7=Shakey Ground
TTITLE8=Tell Me Baby
TTITLE9=Brick
TTITLE10=I Just Can't Leave It Alone
EXTD=
EXTT0=
EXTT1=
EXTT2=
EXTT3=
EXTT4=
EXTT5=
EXTT6=
EXTT7=
EXTT8=
EXTT9=
EXTT10=
PLAYORDER=
